<?xml version="1.0" encoding="UTF-8" standalone="no"?>
<svg
   xml:space="preserve"
   width="346.66666"
   height="346.66666"
   version="1.1"
   id="svg94"
   sodipodi:docname="Youtube_to_Commons.svg"
   inkscape:version="1.2.1 (9c6d41e410, 2022-07-14)"
   xmlns:inkscape="http://www.inkscape.org/namespaces/inkscape"
   xmlns:sodipodi="http://sodipodi.sourceforge.net/DTD/sodipodi-0.dtd"
   xmlns:xlink="http://www.w3.org/1999/xlink"
   xmlns="http://www.w3.org/2000/svg"
   xmlns:svg="http://www.w3.org/2000/svg"><sodipodi:namedview
   id="namedview96"
   pagecolor="#ffffff"
   bordercolor="#666666"
   borderopacity="1.0"
   inkscape:showpageshadow="2"
   inkscape:pageopacity="0.0"
   inkscape:pagecheckerboard="0"
   inkscape:deskcolor="#d1d1d1"
   showgrid="false"
   inkscape:zoom="1.5807693"
   inkscape:cx="242.9197"
   inkscape:cy="173.64963"
   inkscape:window-width="1366"
   inkscape:window-height="705"
   inkscape:window-x="-4"
   inkscape:window-y="-4"
   inkscape:window-maximized="1"
   inkscape:current-layer="svg94" />
  <defs
   id="defs5">
    <path
   id="a"
   d="M0 260h260V0H0Z" />
    <path
   id="b"
   d="M104.71 101.94c0-40.201 32.589-72.79 72.79-72.79 40.201 0 72.79 32.589 72.79 72.79 0 40.201-32.589 72.79-72.79 72.79-40.201 0-72.79-32.589-72.79-72.79" />
    <path
   id="c"
   d="M126.03 153.41c-28.427-28.426-28.427-74.514 0-102.941 28.426-28.425 74.514-28.425 102.941 0 28.425 28.427 28.425 74.515 0 102.941-14.213 14.214-32.842 21.32-51.471 21.32-18.628 0-37.257-7.106-51.47-21.32" />
  
    
    
    
    
    
    
    
    
  
      
      
      
    <clipPath
   clipPathUnits="userSpaceOnUse"
   id="clipPath619"><g
     id="g623"><use
       xlink:href="#a"
       id="use621"
       transform="matrix(1.33333,0,0,-1.33333,0,346.66667)" /></g></clipPath><clipPath
   clipPathUnits="userSpaceOnUse"
   id="clipPath625"><g
     id="g629"><use
       xlink:href="#a"
       id="use627"
       transform="matrix(1.33333,0,0,-1.33333,0,346.66667)" /></g></clipPath><clipPath
   clipPathUnits="userSpaceOnUse"
   id="clipPath631"><g
     id="g635"><use
       xlink:href="#a"
       id="use633"
       transform="matrix(1.33333,0,0,-1.33333,0,346.66667)" /></g></clipPath></defs>
  <defs
   id="defs34">
    
    <clipPath
   id="e"
   clipPathUnits="userSpaceOnUse">
      <use
   xlink:href="#b"
   id="use10" />
    </clipPath>
    <clipPath
   id="f"
   clipPathUnits="userSpaceOnUse">
      <use
   xlink:href="#c"
   id="use13" />
    </clipPath>
    <clipPath
   id="g"
   clipPathUnits="userSpaceOnUse">
      <use
   xlink:href="#b"
   id="use16" />
    </clipPath>
    <clipPath
   id="h"
   clipPathUnits="userSpaceOnUse">
      <use
   xlink:href="#c"
   id="use19" />
    </clipPath>
    <clipPath
   id="i"
   clipPathUnits="userSpaceOnUse">
      <use
   xlink:href="#b"
   id="use22" />
    </clipPath>
    <clipPath
   id="j"
   clipPathUnits="userSpaceOnUse">
      <use
   xlink:href="#c"
   id="use25" />
    </clipPath>
    <clipPath
   id="k"
   clipPathUnits="userSpaceOnUse">
      <use
   xlink:href="#a"
   id="use28" />
    </clipPath>
    <clipPath
   id="l"
   clipPathUnits="userSpaceOnUse">
      <path
   d="M-34.02 39.0605h68.0395v-78.1201H-34.02Z"
   id="path31" />
    </clipPath>
  </defs>
  <path
   fill="#ffffff"
   d="M 103.65574,89.843445 70.039825,70.48216 v 38.72257 z"
   id="path38"
   style="stroke-width:1.33333"
   clip-path="url(#clipPath625)" /><path
   fill="#990000"
   d="m 236.66607,178.17856 c 17.98663,0 32.56792,14.58129 32.56792,32.56792 0,17.98662 -14.58129,32.56792 -32.56792,32.56792 -17.98662,0 -32.56791,-14.5813 -32.56791,-32.56792 0,-17.98663 14.58129,-32.56792 32.56791,-32.56792"
   id="path40"
   style="stroke-width:1.33333"
   clip-path="url(#clipPath619)" />
      
    <g
   fill="#006699"
   clip-path="url(#e)"
   id="g48"
   transform="matrix(1.33333,0,0,-1.33333,0,346.66667)">
      <path
   d="m 174.8131,57.9729 v -28.823 h 5.374 v 28.823"
   id="path44" />
      <path
   d="m 166.9967,56.7516 10.503,18.32 10.504,-18.32"
   id="path46" />
    </g><g
   fill="#006699"
   clip-path="url(#f)"
   id="g54"
   transform="matrix(1.33333,0,0,-1.33333,0,346.66667)">
      <path
   d="m 144.5106,72.7505 -20.381,-20.381 3.8,-3.8 20.381,20.381"
   id="path50" />
      <path
   d="m 138.1199,77.414 20.381,5.527 -5.527,-20.381"
   id="path52" />
    </g><g
   fill="#006699"
   clip-path="url(#g)"
   id="g60"
   transform="matrix(1.33333,0,0,-1.33333,0,346.66667)">
      <path
   d="m 133.5328,104.627 h -28.823 v -5.374 h 28.823"
   id="path56" />
      <path
   d="m 132.3115,112.4434 18.32,-10.503 -18.32,-10.504"
   id="path58" />
    </g><g
   fill="#006699"
   clip-path="url(#h)"
   id="g68"
   transform="matrix(1.33333,0,0,-1.33333,0,346.66667)">
      <path
   d="m 148.3104,134.9296 -20.381,20.381 -3.8,-3.8 20.381,-20.381"
   id="path62" />
      <path
   d="m 152.9738,141.3202 5.527,-20.381 -20.381,5.527 m 72.3696,-53.7157 20.381,-20.381 -3.8,-3.8 -20.381,20.381"
   id="path64" />
      <path
   d="m 216.8801,77.414 -20.381,5.527 5.527,-20.381"
   id="path66" />
    </g><g
   fill="#006699"
   clip-path="url(#i)"
   id="g74"
   transform="matrix(1.33333,0,0,-1.33333,0,346.66667)">
      <path
   d="m 221.4672,104.627 h 28.823 v -5.374 h -28.823"
   id="path70" />
      <path
   d="m 222.6885,112.4434 -18.32,-10.503 18.32,-10.504"
   id="path72" />
    </g><g
   fill="#006699"
   clip-path="url(#j)"
   id="g80"
   transform="matrix(1.33333,0,0,-1.33333,0,346.66667)">
      <path
   d="m 206.6896,134.9296 20.381,20.381 3.8,-3.8 -20.381,-20.381"
   id="path76" />
      <path
   d="m 202.0262,141.3202 -5.527,-20.381 20.381,5.527"
   id="path78" />
    </g><g
   clip-path="url(#k)"
   id="g90"
   transform="matrix(1.33333,0,0,-1.33333,0,346.66667)">
      <path
   fill="none"
   stroke="#006699"
   stroke-width="21"
   d="m 133.2838,146.1563 c -24.42,-24.42 -24.42,-64.012 0,-88.432 24.42,-24.42 64.012,-24.42 88.432,0 24.42,24.42 24.42,64.012 0,88.432 -17.272,17.272 -43.352,8.463 -48.534,46.462"
   id="path82" />
      <path
   fill="#006699"
   d="m 171.882,227.7352 c 0,0 -8.793,-32.975 -19.541,-45.189 -10.748,-12.213 28.334,15.145 41.525,1.222 13.19,-13.923 -21.984,43.967 -21.984,43.967"
   id="path84" />
      <g
   clip-path="url(#l)"
   transform="matrix(-0.60364,0,0,0.64418,73.065987,118.00465)"
   id="g88">
        <path
   fill="#231f20"
   d="m -7.0396,-12.0415 h 23.013 v 51.102 h 18.046 v -68.848 h -41.059 v -9.272 l -26.98,18.084 27.001,17.779 z"
   id="path86" />
      </g>
    </g>
<g
   transform="matrix(0.29620166,0,0,0.29620166,7.3447142,64.791557)"
   id="g2403"
   style="overflow:visible">
	<g
   id="g2405">
		<path
   d="M 20.591,73.837 H 0 V 48.486 H 21.173 V 42.05 C 21.173,10.865 35.353,0 63.324,0 70.9,0 76.727,1.207 81.194,2.013 L 79.058,26.96 c -2.913,-1.006 -5.827,-1.61 -11.071,-1.61 -8.935,0 -12.432,6.438 -12.432,16.7 v 6.437 H 80.418 V 73.838 H 55.555 v 79.467 H 20.591 Z"
   id="path2407"
   style="fill:#0063db" />
		<rect
   width="34.964001"
   height="150.88901"
   x="98.675003"
   y="2.415"
   id="rect2409"
   style="fill:#0063db" />
		<rect
   width="34.965"
   height="26.556999"
   x="163.552"
   y="4.829"
   id="rect2411"
   style="fill:#0063db" />
		<rect
   width="34.965"
   height="104.817"
   x="163.552"
   y="48.486"
   id="rect2413"
   style="fill:#0063db" />
		<path
   d="m 303.604,78.462 c -6.41,-4.021 -12.82,-5.833 -21.173,-5.833 -15.151,0 -26.806,10.864 -26.806,28.972 0,16.699 13.598,27.561 28.749,27.561 7.965,0 15.93,-1.809 21.756,-5.029 l 0.777,26.959 c -8.742,3.02 -19.23,4.629 -28.554,4.629 -33.412,0 -58.857,-20.119 -58.857,-54.723 0,-34.806 25.445,-54.924 58.857,-54.924 10.49,0 19.812,1.811 27.777,5.834 z"
   id="path2415"
   style="fill:#0063db" />
		<polygon
   points="424.231,48.486 389.073,96.569 427.145,153.304 384.799,153.304 356.829,101.399 356.44,101.399 356.44,153.304 321.477,153.304 321.477,2.415 356.44,2.415 356.44,92.548 356.829,92.548 385.965,48.486 "
   id="polygon2417"
   style="fill:#0063db" />
		<path
   d="m 512.417,77.456 c -3.885,-1.205 -7.771,-1.205 -11.848,-1.205 -16.316,0 -25.447,12.271 -25.447,32.793 v 44.26 H 440.159 V 48.486 h 31.855 V 67.8 h 0.389 c 6.02,-13.279 14.762,-21.728 29.914,-21.728 4.076,0 8.35,0.603 11.85,1.206 z"
   id="path2419"
   style="fill:#ff0084" />
		
		
	</g>
</g></svg>
